<svg width="28" height="28" viewBox="0 0 28 28" fill="none" xmlns="http://www.w3.org/2000/svg">
<path d="M16.7183 23.3333H16.4733C15.9795 23.2843 15.5142 23.0792 15.145 22.7477C14.7757 22.4162 14.5218 21.9757 14.42 21.49L11.2933 7L8.07331 14.4667C7.98223 14.6754 7.83208 14.8528 7.64136 14.9772C7.45063 15.1016 7.22768 15.1675 6.99998 15.1667H3.49998C3.19056 15.1667 2.89381 15.0437 2.67502 14.825C2.45623 14.6062 2.33331 14.3094 2.33331 14C2.33331 13.6906 2.45623 13.3938 2.67502 13.175C2.89381 12.9562 3.19056 12.8333 3.49998 12.8333H6.22998L9.15831 6.07833C9.35544 5.62504 9.69142 5.24605 10.1178 4.99603C10.5442 4.746 11.039 4.63784 11.5309 4.68716C12.0227 4.73647 12.4862 4.9407 12.8544 5.27041C13.2227 5.60011 13.4768 6.03826 13.58 6.52166L16.7066 21L19.9266 13.5567C20.0142 13.3436 20.1628 13.1612 20.3538 13.0325C20.5448 12.9038 20.7697 12.8345 21 12.8333H24.5C24.8094 12.8333 25.1061 12.9562 25.3249 13.175C25.5437 13.3938 25.6666 13.6906 25.6666 14C25.6666 14.3094 25.5437 14.6062 25.3249 14.825C25.1061 15.0437 24.8094 15.1667 24.5 15.1667H21.77L18.8416 21.9217C18.6628 22.3376 18.3669 22.6925 17.9899 22.9432C17.6128 23.1938 17.171 23.3294 16.7183 23.3333Z" fill="#EEE5E9"/>
</svg>
