<svg width="24" height="24" viewBox="0 0 24 24" fill="#FFFFFF" xmlns="http://www.w3.org/2000/svg">
<path d="M6 3.21332C4.43556 4.29332 3.26667 5.59688 2.49333 7.12399C1.72 8.65199 1.33333 10.2773 1.33333 12C1.33333 14.4533 2.06844 16.6342 3.53867 18.5427C5.00889 20.4511 6.95822 21.7173 9.38667 22.3413C9.56622 22.3955 9.71333 22.5 9.828 22.6547C9.94267 22.8093 10 22.9791 10 23.164C10 23.3489 9.92889 23.4995 9.78667 23.616C9.64444 23.7315 9.49511 23.7649 9.33867 23.716C6.58667 23.0698 4.34222 21.6707 2.60533 19.5187C0.868444 17.3667 0 14.8604 0 12C0 10.08 0.414222 8.29466 1.24267 6.64399C2.07022 4.99243 3.31244 3.5471 4.96933 2.30799H1.66667C1.47733 2.30799 1.31867 2.24443 1.19067 2.11732C1.06356 1.98932 1 1.83066 1 1.64132C1 1.4511 1.06356 1.29243 1.19067 1.16532C1.31867 1.03821 1.47733 0.974656 1.66667 0.974656H6.256C6.56533 0.974656 6.82222 1.07688 7.02667 1.28132C7.23111 1.48577 7.33333 1.74221 7.33333 2.05066V6.64132C7.33333 6.83066 7.26978 6.98932 7.14267 7.11732C7.01467 7.24443 6.856 7.30799 6.66667 7.30799C6.47733 7.30799 6.31867 7.24399 6.19067 7.11599C6.06356 6.98888 6 6.8311 6 6.64266V3.21332ZM10.1 15.316L17.1947 8.21999C17.3244 8.09021 17.4773 8.02266 17.6533 8.01732C17.8293 8.0111 17.9911 8.08132 18.1387 8.22799C18.2809 8.37554 18.3529 8.53288 18.3547 8.69999C18.3573 8.8671 18.2853 9.02443 18.1387 9.17199L10.8533 16.456C10.6382 16.672 10.3871 16.78 10.1 16.78C9.81289 16.78 9.56178 16.672 9.34667 16.456L5.86133 12.964C5.73689 12.8395 5.66889 12.688 5.65733 12.5093C5.64667 12.3307 5.71467 12.1675 5.86133 12.02C6.00356 11.8778 6.16089 11.8067 6.33333 11.8067C6.50578 11.8067 6.66311 11.8778 6.80533 12.02L10.1 15.316ZM19.0307 21.7173H22.3333C22.5227 21.7173 22.6813 21.7813 22.8093 21.9093C22.9364 22.0364 23 22.1947 23 22.384C23 22.5742 22.9364 22.7329 22.8093 22.86C22.6813 22.9871 22.5227 23.0507 22.3333 23.0507H17.744C17.4347 23.0507 17.1778 22.9484 16.9733 22.744C16.7689 22.5395 16.6667 22.2831 16.6667 21.9747V17.384C16.6667 17.1947 16.7302 17.0364 16.8573 16.9093C16.9853 16.7813 17.144 16.7173 17.3333 16.7173C17.5227 16.7173 17.6813 16.7813 17.8093 16.9093C17.9364 17.0364 18 17.1947 18 17.384V20.8133C19.5467 19.7111 20.7111 18.3973 21.4933 16.872C22.2756 15.3467 22.6667 13.7227 22.6667 12C22.6667 9.54666 21.9316 7.36577 20.4613 5.45732C18.9911 3.54888 17.0418 2.28266 14.6133 1.65866C14.4338 1.60443 14.2867 1.50399 14.172 1.35732C14.0573 1.21066 14 1.04532 14 0.861323C14 0.676434 14.0711 0.521767 14.2133 0.397323C14.3556 0.272878 14.5049 0.235101 14.6613 0.283989C17.4133 0.913323 19.6578 2.30799 21.3947 4.46799C23.1316 6.62799 24 9.13866 24 12C24 13.92 23.5858 15.7098 22.7573 17.3693C21.9289 19.0289 20.6867 20.4782 19.0307 21.7173Z" fill="#1D1D1D"/>
</svg>
