<svg width="27" height="27" viewBox="0 0 27 27" fill="none" xmlns="http://www.w3.org/2000/svg">
<path d="M5.41174 6.88252H3.94116C3.16111 6.88252 2.41302 7.19239 1.86145 7.74397C1.30987 8.29554 1 9.04364 1 9.82368V23.0589C1 23.8389 1.30987 24.587 1.86145 25.1386C2.41302 25.6902 3.16111 26 3.94116 26H17.1764C17.9564 26 18.7045 25.6902 19.2561 25.1386C19.8077 24.587 20.1175 23.8389 20.1175 23.0589V21.5883" stroke="#1D1D1D" stroke-width="2" stroke-linecap="round" stroke-linejoin="round"/>
<path d="M18.647 3.94138L23.0587 8.35311M25.0954 6.27224C25.6746 5.69306 26 4.90752 26 4.08843C26 3.26935 25.6746 2.48381 25.0954 1.90462C24.5163 1.32544 23.7307 1.00006 22.9116 1.00006C22.0925 1.00006 21.307 1.32544 20.7278 1.90462L8.35291 14.2354V18.6472H12.7646L25.0954 6.27224Z" stroke="#1D1D1D" stroke-width="2" stroke-linecap="round" stroke-linejoin="round"/>
</svg>
