<svg width="28" height="28" viewBox="0 0 28 28" fill="none" xmlns="http://www.w3.org/2000/svg">
<g clip-path="url(#clip0_256_4)" filter="url(#filter0_d_256_4)">
<path d="M13.76 0C19.417 0 24 4.477 24 10C24 15.523 19.416 20 13.76 20C10.569 20 7.618 18.563 5.69 16.154C5.63595 16.0867 5.59598 16.0093 5.57246 15.9262C5.54894 15.8432 5.54234 15.7563 5.55307 15.6706C5.5638 15.585 5.59163 15.5024 5.6349 15.4277C5.67818 15.3531 5.73603 15.2879 5.805 15.236C5.94565 15.129 6.12243 15.0809 6.2979 15.102C6.47336 15.1231 6.63372 15.2117 6.745 15.349C7.58843 16.3972 8.65709 17.2421 9.87168 17.8208C11.0863 18.3995 12.4156 18.6973 13.761 18.692C18.676 18.692 22.661 14.8 22.661 10C22.661 5.2 18.676 1.308 13.761 1.308C12.4348 1.3029 11.124 1.59223 9.92319 2.15512C8.72237 2.718 7.66146 3.54041 6.817 4.563C6.70396 4.69904 6.54236 4.78569 6.36648 4.80454C6.19061 4.8234 6.01431 4.77299 5.875 4.664C5.80663 4.61123 5.74956 4.54524 5.70721 4.46997C5.66486 4.39469 5.63808 4.31167 5.62847 4.22583C5.61886 4.14 5.62662 4.05311 5.65127 3.97033C5.67593 3.88756 5.71699 3.81059 5.772 3.744C7.703 1.394 10.614 0 13.76 0ZM14.306 6.862L17.013 9.569C17.275 9.831 17.28 10.249 17.024 10.505L14.38 13.15C14.3178 13.2109 14.2442 13.2589 14.1634 13.2913C14.0826 13.3237 13.9962 13.3398 13.9092 13.3388C13.8222 13.3378 13.7362 13.3196 13.6562 13.2853C13.5762 13.251 13.5038 13.2013 13.443 13.139C13.3807 13.0782 13.3311 13.0057 13.2969 12.9256C13.2627 12.8456 13.2446 12.7596 13.2437 12.6726C13.2428 12.5855 13.259 12.4992 13.2915 12.4184C13.324 12.3377 13.3721 12.2641 13.433 12.202L14.98 10.654L4.67 10.655C4.58298 10.6561 4.49661 10.6399 4.41582 10.6076C4.33503 10.5752 4.26142 10.5273 4.19919 10.4664C4.13696 10.4056 4.08733 10.3331 4.05316 10.253C4.01898 10.173 4.00091 10.087 4 10C4 9.639 4.3 9.346 4.67 9.346H14.938L13.38 7.787C13.3177 7.72617 13.2681 7.65367 13.2339 7.57363C13.1997 7.4936 13.1816 7.4076 13.1807 7.32057C13.1798 7.23354 13.196 7.14718 13.2285 7.06644C13.261 6.98569 13.3091 6.91214 13.37 6.85C13.4955 6.72767 13.6645 6.66013 13.8398 6.66219C14.0151 6.66425 14.1824 6.73575 14.305 6.861" fill="#EEE5E9"/>
</g>
<defs>
<filter id="filter0_d_256_4" x="0" y="0" width="28" height="28" filterUnits="userSpaceOnUse" color-interpolation-filters="sRGB">
<feFlood flood-opacity="0" result="BackgroundImageFix"/>
<feColorMatrix in="SourceAlpha" type="matrix" values="0 0 0 0 0 0 0 0 0 0 0 0 0 0 0 0 0 0 127 0" result="hardAlpha"/>
<feOffset dy="4"/>
<feGaussianBlur stdDeviation="2"/>
<feComposite in2="hardAlpha" operator="out"/>
<feColorMatrix type="matrix" values="0 0 0 0 0 0 0 0 0 0 0 0 0 0 0 0 0 0 0.25 0"/>
<feBlend mode="normal" in2="BackgroundImageFix" result="effect1_dropShadow_256_4"/>
<feBlend mode="normal" in="SourceGraphic" in2="effect1_dropShadow_256_4" result="shape"/>
</filter>
<clipPath id="clip0_256_4">
<rect width="20" height="20" fill="white" transform="translate(4)"/>
</clipPath>
</defs>
</svg>
