<svg width="27" height="27" viewBox="0 0 27 27" fill="none" xmlns="http://www.w3.org/2000/svg">
<g clip-path="url(#clip0_7_8)">
<path d="M13.824 0C18.0697 0 22.001 1.88325 24.6078 5.0544C24.6821 5.14429 24.7375 5.2482 24.7708 5.35995C24.8041 5.4717 24.8145 5.589 24.8016 5.70488C24.7886 5.82075 24.7524 5.93284 24.6953 6.03446C24.6381 6.13608 24.5611 6.22516 24.4688 6.2964C24.2808 6.44369 24.0429 6.51197 23.8055 6.48677C23.5681 6.46157 23.3498 6.34486 23.1971 6.1614C22.0572 4.78065 20.625 3.67015 19.0039 2.91002C17.3828 2.14989 15.6131 1.75908 13.8227 1.7658C7.1874 1.7658 1.80765 7.02 1.80765 13.5C1.80765 19.98 7.1874 25.2342 13.8227 25.2342C15.6389 25.2411 17.4334 24.8391 19.0731 24.0578C20.7128 23.2765 22.1555 22.1361 23.2942 20.7211C23.4445 20.5358 23.661 20.4162 23.8978 20.3878C24.1347 20.3593 24.3734 20.4241 24.5632 20.5686C24.6564 20.6386 24.7345 20.7267 24.7929 20.8275C24.8513 20.9283 24.8889 21.0398 24.9034 21.1554C24.9178 21.271 24.9089 21.3883 24.8772 21.5004C24.8454 21.6125 24.7915 21.7171 24.7185 21.8079C22.1157 25.0614 18.1318 27 13.824 27C6.18705 27 0 20.9561 0 13.5C0 6.04395 6.1884 0 13.824 0ZM23.0823 9.666L26.7354 13.3204C27.0891 13.6728 27.0958 14.2385 26.7516 14.5841L23.1822 18.1521C23.0128 18.3178 22.7846 18.4095 22.5476 18.407C22.3106 18.4045 22.0844 18.3079 21.9186 18.1386C21.8345 18.0566 21.7673 17.9588 21.7211 17.8508C21.6748 17.7428 21.6502 17.6267 21.6489 17.5092C21.6475 17.3917 21.6693 17.2751 21.713 17.166C21.7568 17.057 21.8216 16.9576 21.9038 16.8736L23.9922 14.7852H10.0737C9.95634 14.7866 9.83984 14.7649 9.73086 14.7213C9.62189 14.6777 9.52257 14.6131 9.43858 14.5311C9.35458 14.4491 9.28756 14.3514 9.24134 14.2435C9.19512 14.1356 9.17061 14.0197 9.1692 13.9023C9.1692 13.4136 9.5742 13.0181 10.0737 13.0181H23.9369L21.8336 10.9148C21.6641 10.7491 21.5673 10.523 21.5645 10.286C21.5617 10.0491 21.6531 9.8207 21.8187 9.65115C21.9883 9.48559 22.2166 9.39415 22.4536 9.39693C22.6905 9.39972 22.9167 9.4965 23.0823 9.666Z" fill="#1D1D1D"/>
</g>
<defs>
<clipPath id="clip0_7_8">
<rect width="27" height="27" fill="white"/>
</clipPath>
</defs>
</svg>
