<svg width="20" height="20" viewBox="0 0 20 20" fill="none" xmlns="http://www.w3.org/2000/svg">
<path opacity="0.2" fill-rule="evenodd" clip-rule="evenodd" d="M2.5 9.2C2.5 8.93478 2.60536 8.68043 2.79289 8.49289C2.98043 8.30536 3.23478 8.2 3.5 8.2H13.808C14.0732 8.2 14.3276 8.30536 14.5151 8.49289C14.7026 8.68043 14.808 8.93478 14.808 9.2C14.808 9.46522 14.7026 9.71957 14.5151 9.90711C14.3276 10.0946 14.0732 10.2 13.808 10.2H3.5C3.23478 10.2 2.98043 10.0946 2.79289 9.90711C2.60536 9.71957 2.5 9.46522 2.5 9.2ZM2.5 5.2C2.5 4.93478 2.60536 4.68043 2.79289 4.49289C2.98043 4.30536 3.23478 4.2 3.5 4.2H17.5C17.7652 4.2 18.0196 4.30536 18.2071 4.49289C18.3946 4.68043 18.5 4.93478 18.5 5.2C18.5 5.46522 18.3946 5.71957 18.2071 5.90711C18.0196 6.09464 17.7652 6.2 17.5 6.2H3.5C3.23478 6.2 2.98043 6.09464 2.79289 5.90711C2.60536 5.71957 2.5 5.46522 2.5 5.2ZM2.5 13.2C2.5 12.9348 2.60536 12.6804 2.79289 12.4929C2.98043 12.3054 3.23478 12.2 3.5 12.2H17.5C17.7652 12.2 18.0196 12.3054 18.2071 12.4929C18.3946 12.6804 18.5 12.9348 18.5 13.2C18.5 13.4652 18.3946 13.7196 18.2071 13.9071C18.0196 14.0946 17.7652 14.2 17.5 14.2H3.5C3.23478 14.2 2.98043 14.0946 2.79289 13.9071C2.60536 13.7196 2.5 13.4652 2.5 13.2ZM2.5 17.2C2.5 16.9348 2.60536 16.6804 2.79289 16.4929C2.98043 16.3054 3.23478 16.2 3.5 16.2H13.808C14.0732 16.2 14.3276 16.3054 14.5151 16.4929C14.7026 16.6804 14.808 16.9348 14.808 17.2C14.808 17.4652 14.7026 17.7196 14.5151 17.9071C14.3276 18.0946 14.0732 18.2 13.808 18.2H3.5C3.23478 18.2 2.98043 18.0946 2.79289 17.9071C2.60536 17.7196 2.5 17.4652 2.5 17.2Z" fill="#EEE5E9"/>
<path fill-rule="evenodd" clip-rule="evenodd" d="M2 8.5C2 8.36739 2.05268 8.24021 2.14645 8.14645C2.24021 8.05268 2.36739 8 2.5 8H13.808C13.9406 8 14.0678 8.05268 14.1616 8.14645C14.2553 8.24021 14.308 8.36739 14.308 8.5C14.308 8.63261 14.2553 8.75979 14.1616 8.85355C14.0678 8.94732 13.9406 9 13.808 9H2.5C2.36739 9 2.24021 8.94732 2.14645 8.85355C2.05268 8.75979 2 8.63261 2 8.5ZM2 4.5C2 4.36739 2.05268 4.24021 2.14645 4.14645C2.24021 4.05268 2.36739 4 2.5 4H17.5C17.6326 4 17.7598 4.05268 17.8536 4.14645C17.9473 4.24021 18 4.36739 18 4.5C18 4.63261 17.9473 4.75979 17.8536 4.85355C17.7598 4.94732 17.6326 5 17.5 5H2.5C2.36739 5 2.24021 4.94732 2.14645 4.85355C2.05268 4.75979 2 4.63261 2 4.5ZM2 12.5C2 12.3674 2.05268 12.2402 2.14645 12.1464C2.24021 12.0527 2.36739 12 2.5 12H17.5C17.6326 12 17.7598 12.0527 17.8536 12.1464C17.9473 12.2402 18 12.3674 18 12.5C18 12.6326 17.9473 12.7598 17.8536 12.8536C17.7598 12.9473 17.6326 13 17.5 13H2.5C2.36739 13 2.24021 12.9473 2.14645 12.8536C2.05268 12.7598 2 12.6326 2 12.5ZM2 16.5C2 16.3674 2.05268 16.2402 2.14645 16.1464C2.24021 16.0527 2.36739 16 2.5 16H13.808C13.9406 16 14.0678 16.0527 14.1616 16.1464C14.2553 16.2402 14.308 16.3674 14.308 16.5C14.308 16.6326 14.2553 16.7598 14.1616 16.8536C14.0678 16.9473 13.9406 17 13.808 17H2.5C2.36739 17 2.24021 16.9473 2.14645 16.8536C2.05268 16.7598 2 16.6326 2 16.5Z" fill="#EEE5E9"/>
</svg>
