<svg width="28" height="28" viewBox="0 0 28 28" fill="none" xmlns="http://www.w3.org/2000/svg">
<path d="M14 24.5C15.3789 24.5 16.7443 24.2284 18.0182 23.7007C19.2921 23.1731 20.4496 22.3996 21.4246 21.4246C22.3997 20.4496 23.1731 19.2921 23.7008 18.0182C24.2284 16.7443 24.5 15.3789 24.5 14C24.5 12.6211 24.2284 11.2557 23.7008 9.98182C23.1731 8.70791 22.3997 7.5504 21.4246 6.57538C20.4496 5.60036 19.2921 4.82694 18.0182 4.29927C16.7443 3.77159 15.3789 3.5 14 3.5C11.2152 3.5 8.54453 4.60625 6.5754 6.57538C4.60627 8.54451 3.50002 11.2152 3.50002 14C3.50002 16.7848 4.60627 19.4555 6.5754 21.4246C8.54453 23.3938 11.2152 24.5 14 24.5ZM26.8334 14C26.8334 21.0875 21.0875 26.8333 14 26.8333C6.91252 26.8333 1.16669 21.0875 1.16669 14C1.16669 6.9125 6.91252 1.16667 14 1.16667C21.0875 1.16667 26.8334 6.9125 26.8334 14ZM15.1714 15.1713H12.8334V12.8333H15.1714V15.1713ZM9.33802 15.1713H7.00002V12.8333H9.33802V15.1713ZM21.0047 15.1713H18.6667V12.8333H21.0047V15.1713Z" fill="#EEE5E9"/>
</svg>
