<svg width="25" height="27" viewBox="0 0 25 27" fill="none" xmlns="http://www.w3.org/2000/svg">
<path d="M25 22.6047H0V20.093H1.25V11.3413C1.25 5.07726 6.2875 0 12.5 0C18.7125 0 23.75 5.07726 23.75 11.3413V20.093H25V22.6047ZM3.75 20.093H21.25V11.3413C21.25 6.46493 17.3325 2.51163 12.5 2.51163C7.6675 2.51163 3.75 6.46493 3.75 11.3413V20.093ZM9.375 23.8605H15.625C15.625 24.6931 15.2958 25.4917 14.7097 26.0805C14.1237 26.6692 13.3288 27 12.5 27C11.6712 27 10.8763 26.6692 10.2903 26.0805C9.70424 25.4917 9.375 24.6931 9.375 23.8605Z" fill="#EEE5E9"/>
</svg>
