<svg width="32" height="32" viewBox="0 0 32 32" fill="none" xmlns="http://www.w3.org/2000/svg">
<path d="M10 7.21332C8.43556 8.29332 7.26667 9.59688 6.49333 11.124C5.72 12.652 5.33333 14.2773 5.33333 16C5.33333 18.4533 6.06844 20.6342 7.53867 22.5427C9.00889 24.4511 10.9582 25.7173 13.3867 26.3413C13.5662 26.3955 13.7133 26.5 13.828 26.6547C13.9427 26.8093 14 26.9791 14 27.164C14 27.3489 13.9289 27.4995 13.7867 27.616C13.6444 27.7315 13.4951 27.7649 13.3387 27.716C10.5867 27.0698 8.34222 25.6707 6.60533 23.5187C4.86844 21.3667 4 18.8604 4 16C4 14.08 4.41422 12.2947 5.24267 10.644C6.07022 8.99243 7.31244 7.5471 8.96933 6.30799H5.66667C5.47733 6.30799 5.31867 6.24443 5.19067 6.11732C5.06356 5.98932 5 5.83066 5 5.64132C5 5.4511 5.06356 5.29243 5.19067 5.16532C5.31867 5.03821 5.47733 4.97466 5.66667 4.97466H10.256C10.5653 4.97466 10.8222 5.07688 11.0267 5.28132C11.2311 5.48577 11.3333 5.74221 11.3333 6.05066V10.6413C11.3333 10.8307 11.2698 10.9893 11.1427 11.1173C11.0147 11.2444 10.856 11.308 10.6667 11.308C10.4773 11.308 10.3187 11.244 10.1907 11.116C10.0636 10.9889 10 10.8311 10 10.6427V7.21332ZM14.1 19.316L21.1947 12.22C21.3244 12.0902 21.4773 12.0227 21.6533 12.0173C21.8293 12.0111 21.9911 12.0813 22.1387 12.228C22.2809 12.3755 22.3529 12.5329 22.3547 12.7C22.3573 12.8671 22.2853 13.0244 22.1387 13.172L14.8533 20.456C14.6382 20.672 14.3871 20.78 14.1 20.78C13.8129 20.78 13.5618 20.672 13.3467 20.456L9.86133 16.964C9.73689 16.8395 9.66889 16.688 9.65733 16.5093C9.64667 16.3307 9.71467 16.1675 9.86133 16.02C10.0036 15.8778 10.1609 15.8067 10.3333 15.8067C10.5058 15.8067 10.6631 15.8778 10.8053 16.02L14.1 19.316ZM23.0307 25.7173H26.3333C26.5227 25.7173 26.6813 25.7813 26.8093 25.9093C26.9364 26.0364 27 26.1947 27 26.384C27 26.5742 26.9364 26.7329 26.8093 26.86C26.6813 26.9871 26.5227 27.0507 26.3333 27.0507H21.744C21.4347 27.0507 21.1778 26.9484 20.9733 26.744C20.7689 26.5395 20.6667 26.2831 20.6667 25.9747V21.384C20.6667 21.1947 20.7302 21.0364 20.8573 20.9093C20.9853 20.7813 21.144 20.7173 21.3333 20.7173C21.5227 20.7173 21.6813 20.7813 21.8093 20.9093C21.9364 21.0364 22 21.1947 22 21.384V24.8133C23.5467 23.7111 24.7111 22.3973 25.4933 20.872C26.2756 19.3467 26.6667 17.7227 26.6667 16C26.6667 13.5467 25.9316 11.3658 24.4613 9.45732C22.9911 7.54888 21.0418 6.28266 18.6133 5.65866C18.4338 5.60443 18.2867 5.50399 18.172 5.35732C18.0573 5.21066 18 5.04532 18 4.86132C18 4.67643 18.0711 4.52177 18.2133 4.39732C18.3556 4.27288 18.5049 4.2351 18.6613 4.28399C21.4133 4.91332 23.6578 6.30799 25.3947 8.46799C27.1316 10.628 28 13.1387 28 16C28 17.92 27.5858 19.7098 26.7573 21.3693C25.9289 23.0289 24.6867 24.4782 23.0307 25.7173Z" fill="#1D1D1D"/>
</svg>
