<svg width="31" height="31" viewBox="0 0 31 31" fill="none" xmlns="http://www.w3.org/2000/svg">
<path fill-rule="evenodd" clip-rule="evenodd" d="M14.4654 3.34153C14.7819 3.16577 15.1379 3.07355 15.5 3.07355C15.862 3.07355 16.2181 3.16577 16.5346 3.34153L25.8346 8.50819C26.5114 8.88407 26.9312 9.59707 26.9312 10.3721V20.6279C26.9312 21.4029 26.5114 22.1159 25.8346 22.4918L16.5346 27.6584C16.2181 27.8342 15.862 27.9264 15.5 27.9264C15.1379 27.9264 14.7819 27.8342 14.4654 27.6584L5.16535 22.4918C4.83291 22.3072 4.5559 22.037 4.36308 21.7093C4.17025 21.3815 4.06862 21.0082 4.06873 20.6279V10.3721C4.06873 9.59707 4.48852 8.88407 5.16535 8.50819L14.4654 3.34153ZM15.5943 5.03619C15.5654 5.02013 15.533 5.0117 15.5 5.0117C15.467 5.0117 15.4345 5.02013 15.4057 5.03619L6.10568 10.2029C6.07573 10.2195 6.05074 10.2439 6.03327 10.2734C6.0158 10.3029 6.00646 10.3365 6.00623 10.3708V20.6279C6.00623 20.6989 6.04498 20.7635 6.10568 20.7984L15.4057 25.9651C15.4345 25.9811 15.467 25.9896 15.5 25.9896C15.533 25.9896 15.5654 25.9811 15.5943 25.9651L24.8943 20.7984C24.9246 20.7815 24.9498 20.7568 24.9673 20.7268C24.9848 20.6968 24.9939 20.6626 24.9937 20.6279V10.3721C24.9937 10.3376 24.9845 10.3037 24.967 10.2739C24.9495 10.2442 24.9244 10.2197 24.8943 10.2029L15.5943 5.03619Z" fill="#EEE5E9"/>
<path fill-rule="evenodd" clip-rule="evenodd" d="M9.36456 15.5C9.36456 13.8728 10.011 12.3122 11.1616 11.1616C12.3122 10.011 13.8728 9.36456 15.5 9.36456C17.1272 9.36456 18.6878 10.011 19.8384 11.1616C20.989 12.3122 21.6354 13.8728 21.6354 15.5C21.6354 17.1272 20.989 18.6878 19.8384 19.8384C18.6878 20.989 17.1272 21.6354 15.5 21.6354C13.8728 21.6354 12.3122 20.989 11.1616 19.8384C10.011 18.6878 9.36456 17.1272 9.36456 15.5ZM15.5 11.3021C14.3866 11.3021 13.3189 11.7443 12.5316 12.5316C11.7443 13.3189 11.3021 14.3866 11.3021 15.5C11.3021 16.6133 11.7443 17.6811 12.5316 18.4684C13.3189 19.2556 14.3866 19.6979 15.5 19.6979C16.6133 19.6979 17.6811 19.2556 18.4684 18.4684C19.2556 17.6811 19.6979 16.6133 19.6979 15.5C19.6979 14.3866 19.2556 13.3189 18.4684 12.5316C17.6811 11.7443 16.6133 11.3021 15.5 11.3021Z" fill="#EEE5E9"/>
</svg>
