<svg width="20" height="16" viewBox="0 0 20 16" fill="none" xmlns="http://www.w3.org/2000/svg">
<path d="M3.33 16H2C0.9 16 0 15.1 0 14V2C0 0.9 0.9 0 2 0H3.33C4.43 0 5.33 0.9 5.33 2V8V14C5.33 14.5304 5.11929 15.0391 4.74421 15.4142C4.36914 15.7893 3.86043 16 3.33 16ZM20 14V2C20 0.9 19.1 0 18 0H16.67C15.57 0 14.67 0.9 14.67 2V14C14.67 15.1 15.57 16 16.67 16H18C18.5304 16 19.0391 15.7893 19.4142 15.4142C19.7893 15.0391 20 14.5304 20 14ZM12.67 14V2C12.67 0.9 11.77 0 10.67 0H9.34C8.24 0 7.34 0.9 7.34 2V14C7.34 15.1 8.24 16 9.34 16H10.67C11.77 16 12.67 15.1 12.67 14Z" fill="#EEE5E9"/>
</svg>
