<svg width="1024" height="1024" viewBox="0 0 1024 1024" fill="none" xmlns="http://www.w3.org/2000/svg">
<path d="M512 64C520.487 64 528.626 67.3714 534.627 73.3726C540.629 79.3737 544 87.5131 544 96V288C544 296.487 540.629 304.626 534.627 310.627C528.626 316.629 520.487 320 512 320C503.513 320 495.374 316.629 489.373 310.627C483.371 304.626 480 296.487 480 288V96C480 87.5131 483.371 79.3737 489.373 73.3726C495.374 67.3714 503.513 64 512 64ZM512 704C520.487 704 528.626 707.371 534.627 713.373C540.629 719.374 544 727.513 544 736V928C544 936.487 540.629 944.626 534.627 950.627C528.626 956.629 520.487 960 512 960C503.513 960 495.374 956.629 489.373 950.627C483.371 944.626 480 936.487 480 928V736C480 727.513 483.371 719.374 489.373 713.373C495.374 707.371 503.513 704 512 704ZM960 512C960 520.487 956.629 528.626 950.627 534.627C944.626 540.629 936.487 544 928 544H736C727.513 544 719.374 540.629 713.373 534.627C707.371 528.626 704 520.487 704 512C704 503.513 707.371 495.374 713.373 489.373C719.374 483.371 727.513 480 736 480H928C936.487 480 944.626 483.371 950.627 489.373C956.629 495.374 960 503.513 960 512ZM320 512C320 520.487 316.629 528.626 310.627 534.627C304.626 540.629 296.487 544 288 544H96C87.5131 544 79.3737 540.629 73.3726 534.627C67.3714 528.626 64 520.487 64 512C64 503.513 67.3714 495.374 73.3726 489.373C79.3737 483.371 87.5131 480 96 480H288C296.487 480 304.626 483.371 310.627 489.373C316.629 495.374 320 503.513 320 512ZM195.2 195.2C201.201 189.201 209.339 185.831 217.824 185.831C226.309 185.831 234.447 189.201 240.448 195.2L376.32 331.008C382.149 337.043 385.374 345.127 385.302 353.517C385.229 361.907 381.863 369.933 375.93 375.866C369.997 381.799 361.971 385.165 353.581 385.238C345.191 385.31 337.107 382.085 331.072 376.256L195.2 240.448C189.201 234.447 185.831 226.309 185.831 217.824C185.831 209.339 189.201 201.201 195.2 195.2ZM647.744 647.744C653.745 641.745 661.883 638.375 670.368 638.375C678.853 638.375 686.991 641.745 692.992 647.744L828.8 783.552C834.629 789.587 837.854 797.671 837.782 806.061C837.709 814.451 834.343 822.477 828.41 828.41C822.477 834.343 814.451 837.709 806.061 837.782C797.671 837.854 789.587 834.629 783.552 828.8L647.744 692.992C641.745 686.991 638.375 678.853 638.375 670.368C638.375 661.883 641.745 653.745 647.744 647.744ZM828.8 195.264C834.78 201.262 838.137 209.386 838.137 217.856C838.137 226.326 834.78 234.45 828.8 240.448L692.992 376.32C686.957 382.149 678.873 385.374 670.483 385.302C662.093 385.229 654.067 381.863 648.134 375.93C642.201 369.997 638.835 361.971 638.762 353.581C638.69 345.191 641.915 337.107 647.744 331.072L783.552 195.264C789.553 189.265 797.691 185.895 806.176 185.895C814.661 185.895 822.799 189.265 828.8 195.264ZM376.256 647.744C382.255 653.745 385.625 661.883 385.625 670.368C385.625 678.853 382.255 686.991 376.256 692.992L240.448 828.8C234.413 834.629 226.329 837.854 217.939 837.782C209.549 837.709 201.523 834.343 195.59 828.41C189.657 822.477 186.291 814.451 186.218 806.061C186.146 797.671 189.371 789.587 195.2 783.552L331.008 647.744C337.009 641.745 345.147 638.375 353.632 638.375C362.117 638.375 370.255 641.745 376.256 647.744Z" fill="#EEE5E9"/>
</svg>
